#!OML:ASF F:\VICON\USERDATA\INSTALL\rory3\rory3.ASF
:FULLY-SPECIFIED
:DEGREES
9
root 0.5929617058718871 18.177785288028193 -21.755486291336062 -3.6004594327327286 -1.6143617561468453 -5.098232748731716
lfemur -17.850293230464843 2.9210595616713975 -15.514206127704412
ltibia 69.64558090446374
lfoot -2.0489444750668375 -5.8149227633788865
ltoes -5.130737686697239
rfemur -9.60944191780316 5.367786822150733 31.41269166519204
rtibia 27.673105049314017
rfoot -11.319496991480076 -4.595473314506329
rtoes 6.282445443541048
lowerback 10.364294056817347 0.28609233750968366 3.5766246360132063
upperback 0.7932542660599612 0.9602126334527437 3.1561747766456754
thorax -4.986449878178968 0.4284759588141726 1.1442589169579271
lowerneck -16.794897718610823 -3.2019589832055626 -1.9640799427706692
upperneck 22.31718447207847 -3.954134430084386 0.030677841225725366
head 9.906735078582544 -1.9943084171136647 -0.19079034255902974
lclavicle -1.9532406077847406e-15 9.06769316125688e-16
lhumerus -30.339099541799772 -0.17226628912073427 85.19738837086757
lradius 26.689596954891893
lwrist 5.3678873029931005
lhand -27.461698562724116 21.59230499148991
lfingers 7.12502
lthumb -0.8660215440813952 51.57030508063501
rclavicle -1.9532406077847406e-15 9.06769316125688e-16
rhumerus -27.69900133834494 -18.219699536282555 -77.51660557731462
rradius 22.591406824833577
rwrist 7.263237239630255
rhand -16.67440728217036 12.747138088443656
rfingers 7.12502
rthumb 9.549472671265384 -17.01646176200608
10
root 0.5744551468035788 18.12088847348143 -21.113185678347484 -3.377451154652327 -2.1558400881328263 -5.728931105459971
lfemur -22.48229061114072 2.851849555257632 -14.831106991812177
ltibia 67.34168038714468
lfoot -5.6254201659963154 -3.790305805515076
ltoes -3.8607795110413905
rfemur -8.176012955309695 6.750841828855728 32.76748959618828
rtibia 28.98680427894223
rfoot -13.806294425836548 -7.4177979849989555
rtoes 5.434376768695035
lowerback 10.888287505086563 0.4690192512768566 4.140093293254289
upperback -0.11949288864036128 1.3554191036078904 3.208464232494162
thorax -6.231861484721245 0.5868786367079739 0.8234392465028652
lowerneck -13.480442458203905 -3.000766027181199 -2.2237360482241137
upperneck 21.321496335844557 -3.7316692144994636 0.25848845332984527
head 8.948485144982955 -1.9039534384842347 0.02514233964520725
lclavicle -1.953240639245479e-15 9.067692393201503e-16
lhumerus -33.929193842325446 -0.21311323775339508 85.26918791431505
lradius 27.52029516574633
lwrist 6.226244524664742
lhand -26.478203722270692 22.747201895212235
lfingers 7.12502
lthumb 0.08390969471836796 52.72700185674259
rclavicle -1.953240639245479e-15 9.067692393201503e-16
rhumerus -28.34829950902841 -14.21240608756613 -78.70030146863641
rradius 24.928199714176085
rwrist 4.7133836189415765
rhand -16.917505184814473 12.063440958342966
rfingers 7.12502
rthumb 9.314904758252657 -17.71075885180928
11
root 0.5777800672078851 18.04899250645446 -20.452686472352525 -2.8738951236487242 -2.608198671131865 -6.245669882078422
lfemur -26.15328804630966 2.5240008176807547 -14.286707879142917
ltibia 62.4147825805255
lfoot -7.6615977391899825 -1.2917992999524612
ltoes -4.2274289654180475
rfemur -6.580614088333955 7.085800637815521 33.67098854753723
rtibia 29.729903978168046
rfoot -16.974590865420293 -8.053316838868854
rtoes 2.611541272667913
lowerback 10.699689841348059 0.9160255885540147 5.224130766174158
upperback 0.3022896291722579 2.022846551923436 2.8172882796069616
thorax -5.617765491537512 0.8920610999179575 -0.2946821340099258
lowerneck -15.507015107835974 -3.1419410727717705 -1.7760527545887754
upperneck 21.462194683510095 -4.053332312416866 0.5176860288441776
head 9.372041854517066 -1.977359358088011 -0.03504477749080834
lclavicle -1.9532406114950966e-15 9.067692204441972e-16
lhumerus -33.770394184748014 -1.259756218182451 85.25738808798661
lradius 27.344195597849083
lwrist 6.272994341758838
lhand -26.39700410929254 21.04270663616911
lfingers 7.12502
lthumb 0.1623028795361242 51.02230645546568
rclavicle -1.9532406114950966e-15 9.067692204441972e-16
rhumerus -26.319805055582627 -12.515109033075014 -80.31169597998704
rradius 26.921693712706542
rwrist 2.4297291382765915
rhand -19.143886068708937 21.762102380112747
rfingers 7.12502
rthumb 7.166223891133065 -8.09659739372346
12
root 0.5899807814309908 17.97879645138083 -19.80268676266006 -2.480058224271863 -2.929877710248122 -6.881138061354379
lfemur -28.363586686774738 1.9091530983995013 -13.45550925127543
ltibia 54.923287307706204
lfoot -8.448256957570544 2.032746071673862
ltoes -0.7747059502879341
rfemur -4.427805577495642 6.721862040067085 34.402487143409196
rtibia 29.51050367883972
rfoot -18.454589766870697 -7.607937615007061
rtoes 4.605568087271968
lowerback 10.853787874339979 1.0396278553044564 6.106388746389856
upperback 0.3768575977941699 2.3013254486317676 2.7929585121494216
thorax -5.579996345016886 1.006506166376552 -0.8568497698407075
lowerneck -15.985308681836461 -3.0893529210659185 -1.8316019310969607
upperneck 21.25529712347833 -3.930684950117406 0.4325291352656774
head 9.386441403062125 -1.931921882439394 -0.04559243066013141
lclavicle -1.953240625983146e-15 9.067692559180086e-16
lhumerus -34.27019348125404 -0.7795781417176877 85.2047883191163
lradius 26.851096708673353
lwrist 5.679416314157616
lhand -27.137300252909135 23.579799600031375
lfingers 7.12502
lthumb -0.5526922531073414 53.55879957088615
rclavicle -1.953240625983146e-15 9.067692559180086e-16
rhumerus -24.900209178912515 -9.940593580925027 -81.3850923436785
rradius 28.6084885365928
rwrist 0.2773956212948896
rhand -19.505382927172516 22.2679003607455
rfingers 7.12502
rthumb 6.81727700116025 -7.602339349806572
13
root 0.6087413366492386 17.935498876669655 -19.134686009599243 -1.914222693820673 -3.5764756932271373 -7.611916381895117
lfemur -29.488484984419625 1.093506248019073 -12.261011198980404
ltibia 44.8594924343842
lfoot -8.84426645714262 5.440471377267037
ltoes 6.987765112811246
rfemur -1.6634476575082964 7.020850878024564 35.269085932760746
rtibia 27.843504797015964
rfoot -19.0707893214459 -7.725627352345469
rtoes 4.998527490698318
lowerback 10.619490827489525 1.4697952619228365 7.1830865415685645
upperback 0.5308624010949554 2.9608528966344 2.6297601410936524
thorax -5.185905335819025 1.3159835679108873 -1.712449277849426
lowerneck -16.385903240171015 -3.127851562450665 -1.4081182537842813
upperneck 20.998700164727737 -4.060712150842682 0.3358054235185744
head 9.360142228748291 -1.9674399174000659 -0.16950203375836284
lclavicle -1.9532406260714936e-15 9.067692139353187e-16
lhumerus -34.65089265653657 0.2166199744745284 84.5764918841898
lradius 26.59109726756112
lwrist 4.273470919139496
lhand -26.74500230821929 24.537396991743755
lfingers 7.12502
lthumb -0.1738233137650917 54.5170969712356
rclavicle -1.9532406260714936e-15 9.067692139353187e-16
rhumerus -23.494713173933086 -8.763495329005323 -82.11988974594007
rradius 30.161983879434295
rwrist -1.146311785352884
rhand -19.61228200508778 21.912601768850546
rfingers 7.12502
rthumb 6.714137946673424 -7.960957896293276
